<svg id="evgMJjnCN1U1" xmlns="http://www.w3.org/2000/svg" xmlns:xlink="http://www.w3.org/1999/xlink" viewBox="0 0 50 50" shape-rendering="geometricPrecision" text-rendering="geometricPrecision"><path id="evgMJjnCN1U2" d="M16.6,27.9C16.6,27.9,16.6,27.9,16.6,27.9L25.1,19.4C26.7,17.8,29.2,17.8,30.8,19.4C32.4,21,32.4,23.5,30.8,25.1L18,37.8C16.9,38.863371,15.3,39.267002,13.8,39.6C12.3,39.6,10.7,39,9.6,37.8C7.3,35.5,7.3,31.7,9.6,29.3L26.6,12.3C29.7,9.2,34.8,9.2,37.9,12.3C41,15.4,41,20.5,37.9,23.6L25.1,36.4L25.1,36.4L37.9,23.6C40.647358,21.3,41.153683,14.7,37.9,12.3C35.6,9.493578,28.9,9.115046,26.5,12.3L9.7,29.3C8.404336,29.976085,7.358517,33.516517,7.783019,34.622642C8.177143,35.649611,8.8,37.1,9.6,37.8C11.456167,40.45578,15.624321,39.675856,18,37.8L30.8,25C32.16823,24.427293,32.1812,21.09775,30.8,19.4C29.4188,17.70225,25.9,17.885773,25.1,19.4C25.1,19.4,19.15,25.35,16.6,27.9" transform="matrix(1 0 0 1 0 0.2125)" fill="rgb(248,243,243)" stroke="rgb(0,0,0)" stroke-width="1"/></svg>